<?xml version="1.0" encoding="utf-8"?>
<!-- Generator: Adobe Illustrator 18.0.0, SVG Export Plug-In . SVG Version: 6.00 Build 0)  -->
<!DOCTYPE svg PUBLIC "-//W3C//DTD SVG 1.1//EN" "http://www.w3.org/Graphics/SVG/1.1/DTD/svg11.dtd">
<svg version="1.1" id="Capa_1" xmlns="http://www.w3.org/2000/svg" xmlns:xlink="http://www.w3.org/1999/xlink" x="0px" y="0px"
	 viewBox="15.3 15 71.7 85" enable-background="new 15.3 15 71.7 85" xml:space="preserve">
<g>
	<path d="M86.4,50l-5.5-1.7c0-0.8-0.1-1.6-0.1-2.4l-1.1,0.1c0.1,0.6,0.1,1.3,0.1,1.9l-19.2-5.8l0.4,1.3L82.6,50l-21.6,6.5l-0.4,1.3
		L79.8,52c0,0.6-0.1,1.3-0.1,1.9l1.1,0.1c0.1-0.8,0.1-1.6,0.1-2.4L86.4,50z"/>
	<polygon points="60.1,35 73.4,27.8 66.2,41.1 67.3,41.4 76.1,25.1 59.8,33.9 	"/>
	<polygon points="66.2,58.9 73.4,72.2 60.1,65 59.8,66.1 76.1,74.9 67.3,58.6 	"/>
	<polygon points="42.2,65 29,72.2 36.1,58.9 35,58.6 26.2,74.9 42.5,66.1 	"/>
	<polygon points="36.1,41.1 29,27.8 42.2,35 42.5,33.9 26.2,25.1 35,41.4 	"/>
	<path d="M44.8,21.2l-0.2-1.1c-1,0.2-2,0.5-2.9,0.8L42,22C42.9,21.7,43.9,21.4,44.8,21.2z"/>
	<path d="M40,22.7l-0.4-1c-0.9,0.4-1.8,0.8-2.7,1.3l0.5,1C38.2,23.5,39.1,23.1,40,22.7z"/>
	<path d="M23.6,41.1l-1.1-0.3c-0.3,1-0.5,2-0.7,2.9l1.1,0.2C23.1,43,23.4,42,23.6,41.1z"/>
	<path d="M28.1,32.1l-0.9-0.7c-0.6,0.8-1.2,1.6-1.7,2.5l1,0.6C27,33.6,27.5,32.8,28.1,32.1z"/>
	<path d="M25.5,36.4l-1-0.5c-0.4,0.9-0.8,1.8-1.2,2.8l1,0.4C24.6,38.1,25,37.2,25.5,36.4z"/>
	<path d="M35.5,25.1l-0.6-0.9c-0.8,0.5-1.7,1.1-2.4,1.8l0.7,0.9C33.9,26.2,34.7,25.6,35.5,25.1z"/>
	<path d="M69.9,26c-0.8-0.6-1.6-1.2-2.4-1.8l-0.6,0.9c0.8,0.5,1.6,1.1,2.4,1.7L69.9,26z"/>
	<path d="M74.2,32.1c0.6,0.8,1.1,1.6,1.6,2.4l1-0.6c-0.5-0.9-1.1-1.7-1.7-2.5L74.2,32.1z"/>
	<path d="M60.7,20.9c-0.9-0.3-1.9-0.6-2.9-0.8l-0.2,1.1c0.9,0.2,1.9,0.5,2.8,0.8L60.7,20.9z"/>
	<path d="M65.5,23c-0.9-0.5-1.8-0.9-2.7-1.3l-0.4,1c0.9,0.4,1.8,0.8,2.6,1.3L65.5,23z"/>
	<path d="M79.1,38.7c-0.3-0.9-0.8-1.9-1.2-2.8l-1,0.5c0.4,0.9,0.8,1.8,1.2,2.7L79.1,38.7z"/>
	<path d="M79.4,43.9l1.1-0.2c-0.2-1-0.4-2-0.7-2.9l-1.1,0.3C79,42,79.2,43,79.4,43.9z"/>
	<path d="M22.7,53.9c-0.1-0.6-0.1-1.3-0.1-1.9l19.2,5.7l-0.4-1.3L19.8,50l21.6-6.5l0.4-1.3L22.5,48c0-0.6,0.1-1.3,0.1-1.9L21.6,46
		c-0.1,0.8-0.1,1.6-0.1,2.4L15.9,50l5.5,1.6c0,0.8,0.1,1.6,0.1,2.4L22.7,53.9z"/>
	<path d="M32.4,74c0.8,0.6,1.6,1.2,2.4,1.8l0.6-0.9c-0.8-0.5-1.6-1.1-2.4-1.7L32.4,74z"/>
	<path d="M41.7,79.1c0.9,0.3,1.9,0.6,2.9,0.8l0.2-1.1c-0.9-0.2-1.9-0.5-2.8-0.8L41.7,79.1z"/>
	<path d="M23,56.1l-1.1,0.2c0.2,1,0.4,2,0.7,2.9l1.1-0.3C23.4,58,23.1,57,23,56.1z"/>
	<path d="M23.3,61.3c0.3,0.9,0.8,1.9,1.2,2.8l1-0.5c-0.4-0.9-0.8-1.8-1.2-2.7L23.3,61.3z"/>
	<path d="M36.8,77c0.9,0.5,1.8,0.9,2.7,1.3l0.4-1c-0.9-0.4-1.8-0.8-2.6-1.3L36.8,77z"/>
	<path d="M28.1,67.9c-0.6-0.8-1.1-1.6-1.6-2.4l-1,0.6c0.5,0.9,1.1,1.7,1.7,2.5L28.1,67.9z"/>
	<path d="M78.7,58.9l1.1,0.3c0.3-1,0.5-2,0.7-2.9l-1.1-0.2C79.2,57,79,58,78.7,58.9z"/>
	<path d="M76.9,63.6l1,0.5c0.4-0.9,0.8-1.8,1.2-2.8L78,61C77.7,61.9,77.3,62.8,76.9,63.6z"/>
	<path d="M62.4,77.3l0.4,1c0.9-0.4,1.8-0.8,2.7-1.3L65,76C64.1,76.5,63.3,76.9,62.4,77.3z"/>
	<path d="M55.4,79.2c-0.8,0.1-1.6,0.2-2.5,0.2l8.7-29.2l0-0.2l-8.8-29.4c0.8,0,1.6,0.1,2.5,0.2l0.2-1.1c-1-0.1-2-0.2-3-0.3l-1.4-4.7
		l-1.4,4.7c-1,0-2,0.1-3,0.3l0.2,1.1c0.8-0.1,1.6-0.2,2.5-0.2L40.6,50l8.8,29.4c-0.8,0-1.6-0.1-2.5-0.2l-0.2,1.1c1,0.1,2,0.2,3,0.3
		l1.4,4.7l1.4-4.7c1,0,2-0.1,3-0.3L55.4,79.2z M41.8,50l9.4-31.4L60.5,50l-9.4,31.4L41.8,50z"/>
	<path d="M57.5,78.8l0.2,1.1c1-0.2,2-0.5,2.9-0.8L60.3,78C59.4,78.3,58.5,78.6,57.5,78.8z"/>
	<path d="M74.2,67.9l0.9,0.7c0.6-0.8,1.2-1.6,1.7-2.5l-1-0.6C75.3,66.4,74.8,67.2,74.2,67.9z"/>
	<path d="M66.8,74.9l0.6,0.9c0.8-0.5,1.7-1.1,2.4-1.8l-0.7-0.9C68.4,73.8,67.7,74.4,66.8,74.9z"/>
</g>
<text transform="matrix(1 0 0 1 47.6682 97.3333)" font-family="'Futura-Medium'" font-size="12">S</text>
</svg>
